<svg width="18" height="18" viewBox="0 0 18 18" fill="none" xmlns="http://www.w3.org/2000/svg">
<g opacity="0.8">
<path d="M11.7215 18C12.8493 18 13.8171 17.9408 14.6257 17.7611C15.4446 17.5791 16.1544 17.2618 16.7081 16.7081C17.2618 16.1545 17.579 15.4446 17.761 14.6257C17.9407 13.8172 17.9999 12.8494 17.9999 11.7216V9.00001C17.9999 8.00587 17.1941 7.20002 16.1999 7.20002H8.99995C8.00581 7.20002 7.19995 8.00587 7.19995 9.00001V16.2C7.19995 17.1941 8.00581 18 8.99995 18H11.7215Z" fill="#010101"/>
<path d="M0 11.7216C0 12.8494 0.059256 13.8172 0.238968 14.6257C0.420947 15.4446 0.738188 16.1545 1.29189 16.7081C1.84558 17.2618 2.55539 17.5791 3.37423 17.761C3.45265 17.7784 3.53146 17.7948 3.6106 17.8101C4.58665 17.9986 5.39999 17.1725 5.39999 16.1784V9.00001C5.39999 8.00587 4.59411 7.20002 3.59999 7.20002H1.8C0.805886 7.20002 0 8.00587 0 9.00001V11.7216Z" fill="#010101"/>
<path d="M6.27832 0C5.1505 0 4.18278 0.059256 3.37416 0.238968C2.55532 0.420947 1.84551 0.738188 1.29181 1.29189C0.738114 1.84558 0.420873 2.55539 0.238894 3.37423C0.223954 3.44147 0.209896 3.50892 0.196693 3.57658C0.00375094 4.5654 0.844962 5.39999 1.85242 5.39999H16.1783C17.1725 5.39999 17.9986 4.58665 17.81 3.6106C17.7947 3.53146 17.7783 3.45265 17.761 3.37423C17.5789 2.55539 17.2617 1.84558 16.708 1.29189C16.1543 0.738188 15.4445 0.420947 14.6257 0.238968C13.817 0.059256 12.8493 0 11.7215 0H6.27832Z" fill="#010101"/>
</g>
</svg>
