<svg width="17" height="18" viewBox="0 0 17 18" fill="none" xmlns="http://www.w3.org/2000/svg">
<g clip-path="url(#clip0_2209_349)">
<path d="M2.8335 10.208C3.73085 10.208 4.45832 10.9357 4.4585 11.833V15.375C4.4585 16.2725 3.73096 17 2.8335 17C1.93603 17 1.2085 16.2725 1.2085 15.375V11.833C1.20867 10.9357 1.93614 10.208 2.8335 10.208ZM8.50049 1C9.39783 1.00018 10.1255 1.72764 10.1255 2.625V15.375C10.1255 16.2724 9.39783 16.9998 8.50049 17C7.60299 17 6.87549 16.2725 6.87549 15.375V2.625C6.87549 1.72753 7.603 1 8.50049 1ZM14.1665 5.95801C15.0639 5.95801 15.7913 6.68569 15.7915 7.58301V15.375C15.7915 16.2725 15.064 17 14.1665 17C13.2692 16.9998 12.5415 16.2724 12.5415 15.375V7.58301C12.5417 6.6858 13.2693 5.95818 14.1665 5.95801Z" fill="white" stroke="#0147FF"/>
</g>
<defs>
<clipPath id="clip0_2209_349">
<rect width="17" height="17" fill="white" transform="translate(0 0.5)"/>
</clipPath>
</defs>
</svg>
