<svg width="17" height="18" viewBox="0 0 17 18" fill="none" xmlns="http://www.w3.org/2000/svg">
<g opacity="0.8" clip-path="url(#clip0_2209_37)">
<path d="M2.83331 10.208C3.73067 10.208 4.45814 10.9357 4.45831 11.833V15.375C4.45831 16.2725 3.73078 17 2.83331 17C1.93585 17 1.20831 16.2725 1.20831 15.375V11.833C1.20849 10.9357 1.93596 10.208 2.83331 10.208ZM8.50031 1C9.39765 1.00018 10.1253 1.72764 10.1253 2.625V15.375C10.1253 16.2724 9.39765 16.9998 8.50031 17C7.60281 17 6.87531 16.2725 6.87531 15.375V2.625C6.87531 1.72753 7.60282 1 8.50031 1ZM14.1663 5.95801C15.0637 5.95801 15.7911 6.68569 15.7913 7.58301V15.375C15.7913 16.2725 15.0638 17 14.1663 17C13.269 16.9998 12.5413 16.2724 12.5413 15.375V7.58301C12.5415 6.6858 13.2691 5.95818 14.1663 5.95801Z" fill="#010101" stroke="#F7F7F7"/>
</g>
<defs>
<clipPath id="clip0_2209_37">
<rect width="17" height="17" fill="white" transform="translate(0 0.5)"/>
</clipPath>
</defs>
</svg>
