<svg width="18" height="18" viewBox="0 0 18 18" fill="none" xmlns="http://www.w3.org/2000/svg">
<g opacity="0.67">
<path fill-rule="evenodd" clip-rule="evenodd" d="M1.5 6C1.5 4.34314 2.84315 3 4.5 3H13.5C15.1568 3 16.5 4.34314 16.5 6V6.375C16.5 6.5821 16.3321 6.75 16.125 6.75H1.875C1.6679 6.75 1.5 6.5821 1.5 6.375V6ZM1.875 8.25C1.6679 8.25 1.5 8.41792 1.5 8.625V12C1.5 13.6568 2.84315 15 4.5 15H13.5C15.1568 15 16.5 13.6568 16.5 12V8.625C16.5 8.41792 16.3321 8.25 16.125 8.25H1.875ZM9.75 11.25C9.75 10.8358 10.0858 10.5 10.5 10.5H12.75C13.1642 10.5 13.5 10.8358 13.5 11.25C13.5 11.6642 13.1642 12 12.75 12H10.5C10.0858 12 9.75 11.6642 9.75 11.25Z" fill="#010101"/>
</g>
</svg>
