<svg width="18" height="18" viewBox="0 0 18 18" fill="none" xmlns="http://www.w3.org/2000/svg">
<path d="M14.7004 12.1585V13.9585C14.6997 14.2766 14.573 14.5815 14.348 14.8064C14.1231 15.0314 13.8182 15.1581 13.5001 15.1588H4.50012C4.18201 15.1581 3.87714 15.0314 3.6522 14.8064C3.42726 14.5815 3.30056 14.2766 3.2998 13.9585V12.1585C3.30205 11.3635 3.61888 10.6016 4.18106 10.0395C4.74324 9.47729 5.50508 9.16046 6.30012 9.15821H11.7001C12.4952 9.16046 13.257 9.47729 13.8192 10.0395C14.3814 10.6016 14.6982 11.3635 14.7004 12.1585ZM5.93444 5.19158C5.93462 4.58528 6.11458 3.99266 6.45156 3.48863C6.78853 2.98461 7.26739 2.59182 7.82759 2.35993C8.38779 2.12804 9.00416 2.06746 9.59879 2.18586C10.1934 2.30426 10.7396 2.59631 11.1682 3.02509C11.5969 3.45387 11.8888 4.00013 12.007 4.59479C12.1252 5.18945 12.0644 5.8058 11.8324 6.36593C11.6003 6.92606 11.2074 7.40479 10.7032 7.74161C10.1991 8.07843 9.60641 8.25821 9.00012 8.25821C8.18705 8.25821 7.40728 7.93522 6.83235 7.36029C6.25743 6.78536 5.93444 6.00465 5.93444 5.19158Z" fill="white"/>
</svg>
