<svg width="18" height="18" viewBox="0 0 18 18" fill="none" xmlns="http://www.w3.org/2000/svg">
<g opacity="0.65">
<path d="M14.7003 12.1585V13.9585C14.6996 14.2766 14.5729 14.5815 14.3479 14.8064C14.123 15.0314 13.8181 15.1581 13.5 15.1588H4.5C4.18189 15.1581 3.87702 15.0314 3.65208 14.8064C3.42714 14.5815 3.30043 14.2766 3.29968 13.9585V12.1585C3.30193 11.3635 3.61876 10.6016 4.18094 10.0395C4.74312 9.47729 5.50496 9.16046 6.3 9.15821H11.7C12.495 9.16046 13.2569 9.47729 13.8191 10.0395C14.3812 10.6016 14.6981 11.3635 14.7003 12.1585ZM5.93431 5.19158C5.9345 4.58528 6.11446 3.99266 6.45144 3.48863C6.78841 2.98461 7.26727 2.59182 7.82747 2.35993C8.38766 2.12804 9.00404 2.06746 9.59866 2.18586C10.1933 2.30426 10.7394 2.59631 11.1681 3.02509C11.5967 3.45387 11.8886 4.00013 12.0068 4.59479C12.1251 5.18945 12.0643 5.8058 11.8322 6.36593C11.6002 6.92606 11.2072 7.40479 10.7031 7.74161C10.199 8.07843 9.60629 8.25821 9 8.25821C8.18693 8.25821 7.40716 7.93522 6.83223 7.36029C6.2573 6.78536 5.93431 6.00465 5.93431 5.19158Z" fill="#010101"/>
</g>
</svg>
