<svg width="34" height="34" viewBox="0 0 34 34" fill="none" xmlns="http://www.w3.org/2000/svg">
<g clip-path="url(#clip0_48_361)">
<path d="M29.811 27.0089C28.5902 24.8389 26.5909 22.381 23.3359 20.9838C21.4743 22.2861 19.2127 23.053 16.7746 23.053C14.3352 23.053 12.0736 22.2862 10.212 20.9838C6.95704 22.381 4.95761 24.8389 3.73758 27.0089C2.11837 29.8871 3.38787 33.9596 6.18822 33.9596C8.98864 33.9596 16.7747 33.9596 16.7747 33.9596C16.7747 33.9596 24.56 33.9596 27.3605 33.9596C30.1608 33.9596 31.4303 29.8871 29.811 27.0089Z" fill="black" fill-opacity="0.14"/>
<path d="M16.7746 20.3292C21.5559 20.3292 25.4308 16.453 25.4308 11.6723V9.59851C25.4308 4.81788 21.5559 0.941681 16.7746 0.941681C11.9926 0.941681 8.11707 4.81788 8.11707 9.59857V11.6723C8.11707 16.453 11.9926 20.3292 16.7746 20.3292Z" fill="black" fill-opacity="0.14"/>
</g>
<defs>
<clipPath id="clip0_48_361">
<rect width="33.0174" height="33.0174" fill="white" transform="translate(0.265747 0.941864)"/>
</clipPath>
</defs>
</svg>
