<svg width="18" height="18" viewBox="0 0 18 18" fill="none" xmlns="http://www.w3.org/2000/svg">
<path d="M11.7216 18C12.8494 18 13.8172 17.9408 14.6257 17.7611C15.4446 17.5791 16.1545 17.2618 16.7081 16.7081C17.2618 16.1545 17.5791 15.4446 17.761 14.6257C17.9408 13.8172 18 12.8494 18 11.7216V9.00001C18 8.00587 17.1941 7.20002 16.2 7.20002H9.00001C8.00587 7.20002 7.20001 8.00587 7.20001 9.00001V16.2C7.20001 17.1941 8.00587 18 9.00001 18H11.7216Z" fill="white"/>
<path d="M0 11.7216C0 12.8494 0.059256 13.8172 0.238968 14.6257C0.420947 15.4446 0.738188 16.1545 1.29189 16.7081C1.84558 17.2618 2.55539 17.5791 3.37423 17.761C3.45265 17.7784 3.53146 17.7948 3.6106 17.8101C4.58665 17.9986 5.39999 17.1725 5.39999 16.1784V9.00001C5.39999 8.00587 4.59411 7.20002 3.59999 7.20002H1.8C0.805886 7.20002 0 8.00587 0 9.00001V11.7216Z" fill="white"/>
<path d="M6.27838 0C5.15056 0 4.18284 0.059256 3.37422 0.238968C2.55538 0.420947 1.84557 0.738188 1.29187 1.29189C0.738175 1.84558 0.420934 2.55539 0.238955 3.37423C0.224015 3.44147 0.209957 3.50892 0.196754 3.57658C0.00381197 4.5654 0.845023 5.39999 1.85248 5.39999H16.1784C17.1725 5.39999 17.9986 4.58665 17.8101 3.6106C17.7948 3.53146 17.7784 3.45265 17.761 3.37423C17.579 2.55539 17.2618 1.84558 16.708 1.29189C16.1544 0.738188 15.4445 0.420947 14.6257 0.238968C13.8171 0.059256 12.8494 0 11.7216 0H6.27838Z" fill="white"/>
</svg>
