<svg width="15" height="17" viewBox="0 0 15 17" fill="none" xmlns="http://www.w3.org/2000/svg">
<path d="M13.9115 12.9885C13.3214 11.9395 12.3549 10.7514 10.7815 10.076C9.88157 10.7056 8.78834 11.0762 7.60978 11.0762C6.43056 11.0762 5.33733 10.7056 4.43739 10.076C2.86396 10.7514 1.89744 11.9396 1.30768 12.9885C0.524957 14.3798 1.13863 16.3485 2.49232 16.3485C3.84604 16.3485 7.60981 16.3485 7.60981 16.3485C7.60981 16.3485 11.3732 16.3485 12.727 16.3485C14.0806 16.3485 14.6943 14.3798 13.9115 12.9885Z" fill="black" fill-opacity="0.14"/>
<path d="M7.6096 9.75953C9.9209 9.75953 11.794 7.88578 11.794 5.5748V4.57233C11.794 2.26138 9.9209 0.387634 7.6096 0.387634C5.29797 0.387634 3.42456 2.26138 3.42456 4.57236V5.57483C3.42456 7.88578 5.298 9.75953 7.6096 9.75953Z" fill="black" fill-opacity="0.14"/>
</svg>
