<svg width="60" height="72" viewBox="0 0 60 72" fill="none" xmlns="http://www.w3.org/2000/svg">
<path d="M58.4286 56.8429C55.7665 52.1108 51.4066 46.7511 44.3085 43.7041C40.249 46.5442 35.3173 48.2164 30.0007 48.2164C24.6811 48.2164 19.7494 46.5443 15.6897 43.7041C8.59176 46.7511 4.23168 52.111 1.5712 56.8429C-1.95975 63.1192 0.80859 72 6.91523 72C13.022 72 30.0008 72 30.0008 72C30.0008 72 46.9779 72 53.0848 72C59.1913 72 61.9597 63.1192 58.4286 56.8429Z" fill="black" fill-opacity="0.14"/>
<path d="M30.0008 42.2776C40.4273 42.2776 48.877 33.825 48.877 23.3999V18.8776C48.877 8.45269 40.4273 0 30.0008 0C19.5727 0 11.1216 8.45269 11.1216 18.8778V23.4C11.1216 33.825 19.5729 42.2776 30.0008 42.2776Z" fill="black" fill-opacity="0.14"/>
</svg>
